<svg width="639" height="400" viewBox="0 0 639 400" fill="none" xmlns="http://www.w3.org/2000/svg">
<g clip-path="url(#clip0_76_102425)">
<path d="M608.945 399.079C572.402 399.079 40.0541 399.21 39.7458 398.255L39.6936 398.134C39.6936 398.134 39.6414 398.016 39.6414 397.959C39.4374 397.482 -42.3804 263.554 84.8161 170.32C134.585 133.84 81.7018 109.758 121.279 69.1473C166.762 22.4794 216.398 74.1055 266.974 52.9433C275.911 49.2074 284.876 43.1954 293.854 33.9695C314.672 12.5937 343.236 2.7057 372.728 0.48647C429.241 -3.74075 492.835 20.0323 525.655 54.7804C532.263 61.7775 562.31 97.9806 538.624 147.741C523.669 179.159 586.318 209.165 608.578 245.043C665.175 336.257 609.46 397.89 608.945 399.079Z" fill="#E6EAFF"/>
<g opacity="0.5">
<g opacity="0.5">
<path d="M206.28 148.249C206.28 148.249 202.134 113.501 184.34 92.7638C181.975 90.0082 177.449 91.7622 177.525 95.3937C177.525 95.453 177.528 95.5147 177.53 95.5764C177.76 101.776 197.684 127.923 206.28 148.249Z" fill="#AEC3FF"/>
</g>
<g opacity="0.5">
<path d="M208.443 158.199C208.443 158.199 190.711 114.766 160.427 95.5576C158.579 94.3851 156.079 94.8099 154.841 96.6138C154.035 97.7887 153.672 99.6234 154.578 102.488C156.99 110.129 190.768 135.843 208.445 158.199H208.443Z" fill="#AEC3FF"/>
</g>
</g>
<path d="M429.304 147.155C429.304 147.155 413.427 137.374 421.525 125.326C421.525 125.326 427.907 117.987 434.489 116.304C434.489 116.304 430.26 134.594 433.709 135.171C437.158 135.748 436.954 114.45 436.954 114.45C436.954 114.45 454.415 106.919 461.106 107.847C461.106 107.847 449.743 125.406 453.229 125.117C456.714 124.827 469.387 107.104 469.387 107.104C469.387 107.104 487.076 104.579 489.462 115.105C491.848 125.632 487.083 130.647 484.455 131.191C481.827 131.734 465.151 130.825 465.494 133.011C465.838 135.197 476.965 139.135 483.329 137.443C483.329 137.443 475.686 154.287 466.619 153.044C457.553 151.8 454.968 146.044 449.351 145.377C443.735 144.71 439.556 146.058 442.309 147.691C445.063 149.327 454.641 148.7 459.033 152.761C463.424 156.822 467.01 159.359 458.486 160.743C449.961 162.127 434.838 160.416 432.072 153.784L429.307 147.153L429.304 147.155Z" fill="#82B378"/>
<path d="M481.308 118.027C481.308 118.027 435.189 130.889 429.305 147.155C429.305 147.155 429.217 154.537 424.317 162.806L424.181 166.06C424.181 166.06 429.407 155.196 432.07 153.787C432.07 153.787 422.476 139.052 481.308 118.027Z" fill="#82B378"/>
<path d="M424.316 162.806C424.316 162.806 416.857 173.18 420.322 186.327L422.148 185.917C422.148 185.917 420.986 171.545 424.957 164.505C428.927 157.465 424.319 162.806 424.319 162.806H424.316Z" fill="#82B378"/>
<path d="M365.062 146.763C365.062 146.763 338.4 149.123 337.399 128.305C337.399 128.305 338.459 114.379 344.595 106.794C344.595 106.794 355.397 131.483 359.863 129.188C364.329 126.892 345.845 102.545 345.845 102.545C345.845 102.545 359.498 78.8907 367.996 74.2196C367.996 74.2196 369.958 104.187 373.722 100.865C377.486 97.5393 376.893 66.2612 376.893 66.2612C376.893 66.2612 395.095 48.1751 406.864 58.2483C418.631 68.3214 417.443 78.1857 414.881 81.0648C412.322 83.9439 392.339 97.2094 394.609 99.431C396.879 101.653 413.062 96.6398 418.942 89.232C418.942 89.232 424.575 115.186 413.069 121.533C401.563 127.88 393.658 123.47 386.618 127.521C379.581 131.573 375.921 136.712 380.494 136.23C385.067 135.748 395.558 126.809 404.092 127.718C412.626 128.625 418.93 128.471 410.301 137.381C401.672 146.289 382.79 157.295 373.926 152.033L365.06 146.768L365.062 146.763Z" fill="#A8D29F"/>
<path d="M399.981 68.6062C399.981 68.6062 357.899 122.988 365.062 146.763C365.062 146.763 371.286 155.339 372.728 169.065L375.361 172.927C375.361 172.927 372.069 155.937 373.928 152.028C373.928 152.028 350.257 143.293 399.981 68.6062Z" fill="#A8D29F"/>
<path d="M372.729 169.067C372.729 169.067 373.03 187.412 388.284 199.579L390.034 197.54C390.034 197.54 376.381 181.989 374.92 170.477C373.459 158.966 372.729 169.067 372.729 169.067Z" fill="#A8D29F"/>
<path d="M114.521 351.87C114.521 351.87 107.052 343.152 114.061 337.615C114.061 337.615 119.18 334.515 123.354 334.767C123.354 334.767 117.441 344.69 119.353 345.678C121.267 346.665 125.145 334.145 125.145 334.145C125.145 334.145 136.793 333.015 140.541 334.816C140.541 334.816 130.584 342.972 132.68 343.456C134.777 343.94 145.534 335.939 145.534 335.939C145.534 335.939 156.375 337.786 155.797 344.403C155.218 351.02 151.482 353.064 149.841 352.888C148.199 352.713 138.596 349.043 138.387 350.389C138.178 351.735 143.959 356.135 148.007 356.339C148.007 356.339 140.365 364.775 135.285 362.34C130.204 359.904 129.772 356.047 126.606 354.6C123.44 353.152 120.736 353.156 122.045 354.633C123.352 356.109 129.082 357.543 130.894 360.749C132.704 363.954 134.329 366.116 129.075 365.325C123.819 364.535 115.278 360.685 114.901 356.28L114.526 351.872L114.521 351.87Z" fill="#BBD0FF"/>
<path d="M150.469 344.579C150.469 344.579 121.025 343.444 114.521 351.87C114.521 351.87 113.084 356.18 108.658 360.104L107.968 361.986C107.968 361.986 113.069 356.603 114.896 356.278C114.896 356.278 112.04 345.839 150.469 344.579Z" fill="#BBD0FF"/>
<path d="M108.658 360.106C108.658 360.106 102.337 364.784 101.898 373.141L103.046 373.243C103.046 373.243 105.065 364.601 108.712 361.222C112.36 357.842 108.658 360.106 108.658 360.106Z" fill="#BBD0FF"/>
<path d="M88.4119 340.907C88.4119 340.907 100.29 334.249 94.7471 325.216C94.7471 325.216 90.3117 319.669 85.5609 318.242C85.5609 318.242 88.094 331.714 85.5609 332.032C83.0253 332.35 83.8176 316.816 83.8176 316.816C83.8176 316.816 71.3035 310.792 66.3938 311.269C66.3938 311.269 74.1545 324.425 71.6214 324.107C69.0882 323.789 60.3763 310.476 60.3763 310.476C60.3763 310.476 47.5469 308.098 45.4881 315.707C43.4293 323.314 46.7547 327.119 48.6569 327.596C50.5568 328.071 62.7529 327.912 62.4375 329.497C62.1196 331.083 53.8845 333.618 49.2902 332.191C49.2902 332.191 54.3589 344.714 61.012 344.078C67.6651 343.444 69.7239 339.324 73.8415 339.006C77.959 338.688 80.9689 339.798 78.9101 340.907C76.8514 342.015 69.8828 341.27 66.5551 344.099C63.2297 346.928 60.5352 348.673 66.714 349.94C72.8903 351.208 83.9788 350.415 86.1965 345.661L88.4142 340.907H88.4119Z" fill="#AEC3FF"/>
<path d="M51.3464 318.083C51.3464 318.083 84.6096 328.861 88.4117 340.907C88.4117 340.907 88.2528 346.295 91.5805 352.478V354.856C91.5805 354.856 88.0962 346.772 86.194 345.663C86.194 345.663 93.6393 335.203 51.3464 318.083Z" fill="#AEC3FF"/>
<path d="M91.5807 352.478C91.5807 352.478 96.7111 360.272 93.7866 369.762L92.4678 369.408C92.4678 369.408 93.7486 358.957 91.066 353.7C88.3835 348.443 91.5831 352.478 91.5831 352.478H91.5807Z" fill="#AEC3FF"/>
<path d="M107.311 331.726C107.311 331.726 91.6514 322.951 98.9592 311.041C98.9592 311.041 104.806 303.728 111.07 301.848C111.07 301.848 107.73 319.607 111.07 320.025C114.41 320.442 113.366 299.966 113.366 299.966C113.366 299.966 129.86 292.027 136.333 292.653C136.333 292.653 126.103 309.994 129.442 309.576C132.782 309.159 144.267 291.609 144.267 291.609C144.267 291.609 161.178 288.474 163.894 298.504C166.607 308.532 162.224 313.547 159.717 314.174C157.212 314.801 141.133 314.592 141.551 316.68C141.968 318.769 152.827 322.113 158.88 320.231C158.88 320.231 152.198 336.736 143.429 335.901C134.661 335.066 131.945 329.633 126.518 329.215C121.089 328.797 117.123 330.259 119.836 331.721C122.55 333.183 131.738 332.201 136.122 335.929C140.507 339.661 144.056 341.958 135.913 343.629C127.77 345.3 113.155 344.256 110.23 337.987L107.308 331.719L107.311 331.726Z" fill="#D2E0FF"/>
<path d="M156.169 301.64C156.169 301.64 112.323 315.847 107.311 331.726C107.311 331.726 107.52 338.83 103.134 346.978V350.111C103.134 350.111 107.728 339.457 110.233 337.992C110.233 337.992 100.42 324.202 156.167 301.637L156.169 301.64Z" fill="#D2E0FF"/>
<path d="M103.137 346.978C103.137 346.978 96.3744 357.253 100.229 369.762L101.967 369.294C101.967 369.294 100.279 355.518 103.817 348.588C107.354 341.659 103.137 346.978 103.137 346.978Z" fill="#D2E0FF"/>
<path d="M106.784 396.886C123.726 396.886 137.459 383.143 137.459 366.189H76.111C76.111 383.141 89.8441 396.886 106.786 396.886H106.784Z" fill="#C0D4FF"/>
<path d="M137.882 398.448H75.6865C75.6865 396.357 77.38 394.66 79.472 394.66H134.099C136.188 394.66 137.884 396.354 137.884 398.448H137.882Z" fill="#C0D4FF"/>
<path d="M138.157 366.189H75.1007V367.132H138.157V366.189Z" fill="#86A2E2"/>
<path d="M316.019 224.926L302.293 388.249C302.293 388.249 300.856 398.149 308.213 398.168C320.312 398.196 368.438 398.168 368.438 398.168C368.438 398.168 359.332 396.108 359.441 391.47C359.572 386.004 375.484 223.38 375.484 223.38L316.017 224.926H316.019Z" fill="#798EE8"/>
<path d="M372.97 395.196C370.591 395.203 323.998 395.281 312.214 395.13C307.079 395.065 306.178 390.561 306.135 387.643C306.114 386.245 306.292 385.213 306.292 385.213L306.648 380.969L307.558 370.151L308.363 360.593L309.394 348.31L310.265 337.942L320.018 221.89L379.486 220.344C379.486 220.344 372.783 288.402 368.044 337.942C367.515 343.461 367.012 348.754 366.545 353.695C366.393 355.274 366.248 356.814 366.108 358.316C365.669 363.004 365.266 367.307 364.917 371.107C364.732 373.111 364.564 374.971 364.41 376.676C363.805 383.357 363.449 387.622 363.445 388.434C363.445 388.906 363.482 389.348 363.561 389.756C364.538 394.961 372.078 395.196 372.97 395.196Z" fill="#AEC3FF"/>
<path d="M171.6 135.978L205.037 270.373L209.614 288.78L225.188 351.376H514.5L457.103 135.978H171.6Z" fill="#AEC3FF"/>
<path d="M171.601 135.978L166.969 137.523L219.026 356.052L225.188 351.379L171.601 135.978Z" fill="#798EE8"/>
<path d="M219.026 356.052H506.559L514.5 351.379H225.188L219.026 356.052Z" fill="#849DEF"/>
<path d="M319.999 398.158H382.254V395.198H319.999V398.158Z" fill="#AEC3FF"/>
<path d="M366.428 356.052L366.108 358.314L307.558 370.151L308.362 360.593L308.747 356.052H366.428Z" fill="#8C9DF4"/>
<g opacity="0.5">
<path d="M372.97 395.196C370.591 395.203 323.998 395.282 312.215 395.13C307.08 395.066 306.178 390.561 306.135 387.644L364.408 376.673C363.803 383.355 363.447 387.62 363.442 388.432C363.442 388.904 363.48 389.345 363.559 389.754C364.536 394.959 372.076 395.194 372.968 395.194L372.97 395.196Z" fill="#8C9DF4"/>
</g>
<path d="M171.6 135.978H457.103L503.425 309.092H214.666L171.6 135.978Z" fill="#8C9DF4"/>
<path d="M489.96 301.59H222.643L213.092 263.509L209.396 248.774L207.888 242.767L198.071 203.633L197.563 201.596L192.371 180.911L190.049 171.654L188.071 163.758L186.453 157.321L183.424 145.254H446.89L450.215 157.321L451.987 163.758L454.162 171.654L456.712 180.911L473.512 241.886V241.889L474.932 247.056L475.594 249.453L487.193 291.55L489.96 301.59Z" fill="#505ABA"/>
<path d="M384.014 294.692H246.474L238.917 257.625L235.992 245.971L234.802 241.217L227.034 210.259L226.633 208.648L222.525 192.285L220.689 184.963L219.124 178.718L217.843 173.624L215.449 164.078H350.03L384.014 294.692Z" fill="#5E6ECC"/>
<path d="M323.137 309.092L225.286 351.882L214.667 309.092H323.137Z" fill="#8C9DF4"/>
<path d="M545.975 214.821C545.989 214.437 546.288 210.283 552.609 210.065C552.609 210.065 549.499 210.435 548.963 211.804C548.963 211.804 551.079 210.115 552.803 210.658C554.528 211.202 555.54 214.223 555.55 215.218C555.559 216.212 554.601 219.416 553.508 219.689C553.093 219.791 552.616 219.765 552.182 219.689C552.474 220.145 552.758 220.646 553.031 221.206C555.552 226.387 552.953 231.452 550.816 230.892C549.445 230.534 549.058 232.872 549.058 232.872L535.752 222.091C535.752 222.091 540.64 211.971 545.972 214.819L545.975 214.821Z" fill="#2C3A64"/>
<path d="M509.711 279.611C510.823 280.596 513.774 277.214 514.182 276.765C514.203 276.722 514.225 276.701 514.225 276.701L513.326 274.197C513.326 274.197 509.455 274.047 508.812 274.688C508.171 275.331 508.492 278.562 509.711 279.611Z" fill="#FFB27D"/>
<path d="M541.342 367.478L544.169 368.532C544.169 368.532 556.446 351.493 557.957 336.504C558.228 333.826 557.673 328.154 557.884 326.941C557.981 326.376 558.1 325.695 558.237 324.914C558.636 322.626 559.186 319.495 559.812 315.93C561.256 307.725 563.128 297.239 564.582 289.527L563.82 289.283L555.581 286.622L553.878 281.211L547.742 279.594C547.742 279.594 546.371 282.276 545.147 294.953C544.921 296.615 544.715 298.449 544.561 300.438C544.084 306.507 544.049 314.034 545.144 322.64C545.427 324.843 546.594 333.501 546.458 336.183C545.839 348.438 541.345 367.483 541.345 367.483L541.342 367.478Z" fill="#2B478B"/>
<path d="M544.559 300.434L557.882 326.941C557.979 326.376 558.098 325.695 558.235 324.914C558.634 322.626 559.184 319.495 559.81 315.93C561.254 307.725 563.126 297.239 564.58 289.527L563.818 289.283L555.579 286.622L553.876 281.211L547.74 279.594C547.74 279.594 546.369 282.276 545.145 294.953C544.919 296.615 544.713 298.449 544.559 300.438V300.434Z" fill="#233862"/>
<path d="M550.422 282.993L550.73 280.347C555.898 281.721 569.705 276.509 569.705 276.509C569.705 276.509 574.712 280.912 574.055 291.467C573.735 296.62 573.149 318.51 572.537 324.99C572.317 327.337 573.839 333.38 574.451 335.011C580.459 351.03 573.526 370.756 573.526 370.756L571.728 370.03C571.728 370.03 560.348 328.738 559.174 324.363C556.956 316.094 555.17 305.335 553.98 297.03C553.816 297.037 550.427 282.993 550.427 282.993H550.422Z" fill="#2B478B"/>
<path d="M546.499 252.282C555.384 252.769 553.432 239.518 552.888 239.584C551.802 239.017 549.85 236.256 548.721 231.64L548.337 231.818L541.926 234.835C541.926 234.835 542.606 236.921 543.109 238.919C543.501 240.484 543.783 241.993 543.548 242.416C543.043 242.622 542.739 242.75 542.739 242.75C542.739 242.75 542.739 242.75 542.739 242.757C542.675 242.921 544.129 252.154 546.499 252.282Z" fill="#FFB27D"/>
<path d="M541.928 234.837C541.928 234.837 542.609 236.923 543.112 238.922C546.859 237.875 547.995 233.935 548.339 231.82L541.928 234.835V234.837Z" fill="#ED985F"/>
<path d="M541.138 237.044C541.138 237.044 550.104 234.968 548.726 229.402C547.348 223.836 547.578 219.817 541.795 220.909C536.013 221.999 535.431 224.398 535.439 226.368C535.448 228.338 538.771 237.443 541.138 237.047V237.044Z" fill="#FFB27D"/>
<path d="M534.936 223.207C535.899 221.189 537.033 221.296 537.744 221.655C541.957 217.755 546.088 220.94 546.088 220.94C547.678 224.785 551.124 226.354 551.124 226.354C551.124 226.354 549.746 227.766 545.756 227.733C544.537 227.724 543.311 227.163 542.196 226.392C544.347 228.561 546.871 229.881 546.871 229.881C541.874 228.925 538.525 223.136 538.181 222.521C537.758 223.148 536.947 224.479 536.878 225.602C536.786 227.13 537.312 230.097 536.437 230.209C536.437 230.209 533.491 226.231 534.938 223.204L534.936 223.207Z" fill="#2C3A64"/>
<path d="M563.064 372.225H577.3C577.3 372.225 577.641 370.053 576.897 368.406C576.185 366.825 575.068 366.106 575.336 364.196C574.432 365.128 572.957 366.17 570.898 365.895C570.647 366.303 569.271 368.494 568.429 369.099C567.499 369.769 563.351 369.529 563.064 372.225Z" fill="#233862"/>
<path d="M532.497 372.225H546.733C546.733 372.225 547.265 369.954 546.33 368.406C545.502 367.039 545.82 366.258 546.432 365.126C545.787 365.389 544.952 365.629 544.034 365.577C543.325 365.536 542.575 365.214 541.916 364.832C541.304 365.529 538.681 368.506 537.86 369.094C536.93 369.764 532.782 369.524 532.495 372.22L532.497 372.225Z" fill="#233862"/>
<path d="M569.968 259.681C569.202 257.196 568.412 254.813 567.611 252.612C565.789 247.611 564.629 245 563.647 242.978C561.778 239.131 553.42 239.373 553.42 239.373C551.809 245.178 547.386 248.796 547.386 248.796C545.028 247.41 543.271 242.537 543.271 242.537L538.109 245.285C538.09 245.304 536.511 246.237 535.118 250.244C533.048 256.206 529.687 264.67 527.355 267.259C526.812 267.862 525.218 268.776 523.29 269.747C523.25 269.811 523.216 269.844 523.195 269.844C523.318 270.129 523.883 271.472 524.789 272.837C525.524 273.945 526.492 275.066 527.638 275.645C528.518 275.22 530.102 274.596 530.773 274.183C533.202 272.697 536.821 270.554 539.651 266.039L540.441 276.658L541.869 295.867C544.065 296.551 546.155 297.085 548.138 297.495C548.268 295.886 548.788 293.959 548.788 293.959C548.766 294.97 549.945 296.902 550.645 297.953C568.875 300.875 577.421 292.919 577.421 292.919C576.712 285.875 573.64 271.629 569.964 259.685L569.968 259.681Z" fill="#8C9DF4"/>
<path d="M551.577 238.298C551.577 238.298 553.092 238.4 553.42 239.37C553.42 239.37 551.442 247.343 547.388 248.793L551.577 238.298Z" fill="#707FE5"/>
<path d="M547.386 248.793C547.386 248.793 543.515 241.801 543.529 240.856C543.529 240.856 542.056 242.162 542.153 243.13C542.153 243.13 545.415 248.356 547.386 248.793Z" fill="#707FE5"/>
<path d="M557.768 245.957C557.658 246.334 549.755 265.232 542.668 272.201C539.566 275.251 549.452 274.37 549.547 273.803C549.641 273.236 557.768 245.957 557.768 245.957Z" fill="#707FE5"/>
<path d="M540.692 277.252L541.368 287.914C562.983 282.889 561.169 248.44 561.169 248.44L550.315 270.867L540.79 277.097C540.79 277.097 540.754 277.15 540.692 277.249V277.252Z" fill="#707FE5"/>
<path d="M523.169 269.807C523.173 269.831 523.183 269.84 523.196 269.84C523.19 269.824 523.183 269.81 523.18 269.801C523.164 269.768 523.159 269.768 523.169 269.805V269.807Z" fill="#AEC3FF"/>
<path d="M533.862 255.128L538.167 274.325C538.852 277.382 536.539 279.86 532.998 279.86H429.656C426.117 279.86 422.692 277.382 422.006 274.325L417.701 255.128C417.675 255.009 417.652 254.895 417.64 254.777C417.196 251.881 419.466 249.593 422.87 249.593H526.212C529.616 249.593 532.913 251.883 533.767 254.777C533.807 254.895 533.836 255.009 533.862 255.128Z" fill="#F99746"/>
<path d="M429.883 271.204H428.87L426.193 259.26H427.205L429.883 271.204Z" fill="#EBF3FA"/>
<path d="M436.869 264.19H429.606L428.849 260.81H436.112L436.869 264.19Z" fill="#EBF3FA"/>
<path d="M440.253 269.037H430.692L429.935 265.655H439.496L440.253 269.037Z" fill="#EBF3FA"/>
<path d="M453.115 271.204H452.1L449.422 259.26H450.438L453.115 271.204Z" fill="#EBF3FA"/>
<path d="M454.667 264.19H447.404L446.645 260.81H453.908L454.667 264.19Z" fill="#EBF3FA"/>
<path d="M456.901 269.037H447.34L446.583 265.655H456.144L456.901 269.037Z" fill="#EBF3FA"/>
<path d="M476.348 271.204H475.333L472.655 259.26H473.67L476.348 271.204Z" fill="#EBF3FA"/>
<path d="M472.463 264.19H465.2L464.441 260.81H471.704L472.463 264.19Z" fill="#EBF3FA"/>
<path d="M473.549 269.037H463.988L463.229 265.655H472.79L473.549 269.037Z" fill="#EBF3FA"/>
<path d="M491.212 260.226H479.277L479.049 259.213H490.985L491.212 260.226Z" fill="#EBF3FA"/>
<path d="M484.417 261.178L486.046 268.446H482.669L481.039 261.178H484.417Z" fill="#EBF3FA"/>
<path d="M489.258 261.178L491.404 270.746H488.024L485.88 261.178H489.258Z" fill="#EBF3FA"/>
<path d="M509.998 265.74H498.062L497.835 264.727H509.77L509.998 265.74Z" fill="#EBF3FA"/>
<path d="M502.059 261.598L503.691 268.868H500.311L498.681 261.598H502.059Z" fill="#EBF3FA"/>
<path d="M506.644 260.449L508.79 270.017H505.41L503.266 260.449H506.644Z" fill="#EBF3FA"/>
<path d="M528.793 271.296H516.858L516.63 270.283H528.565L528.793 271.296Z" fill="#EBF3FA"/>
<path d="M519.779 261.978L521.409 269.246H518.031L516.402 261.978H519.779Z" fill="#EBF3FA"/>
<path d="M524.106 259.678L526.25 269.246H522.872L520.726 259.678H524.106Z" fill="#EBF3FA"/>
<path d="M523.48 278.142C524.659 278.137 526.516 278.056 527.59 277.643C527.59 277.643 524.158 277.593 524.886 276.509C525.019 276.312 526.724 276.461 528.631 276.461C529.412 276.461 531.343 277.532 531.243 277.581C532.623 277.399 533.878 277.13 534.284 277.043C534.39 277.021 534.433 277 534.433 277L535.652 280.553C535.652 280.553 535.396 280.617 534.945 280.703C533.812 280.98 531.48 281.581 529.277 282.438C526.196 283.658 523.93 282.141 522.903 281.068C522.251 280.387 521.739 279.485 521.774 278.83C521.812 278.113 522.759 278.146 523.477 278.142H523.48Z" fill="#FFB27D"/>
<path d="M531.762 278.414L532.512 281.154C532.512 281.154 533.453 280.983 534.95 280.705C535.398 280.617 535.654 280.553 535.654 280.553C536.852 280.318 538.285 279.998 539.846 279.653H539.869C542.542 279.013 545.536 278.241 548.062 277.384C548.287 277.306 548.51 277.225 548.728 277.147C550.22 276.596 547.336 269.015 546.031 269.958C545.685 270.209 545.315 270.468 544.926 270.734C542.763 272.205 540.007 273.843 537.561 275.222C536.364 275.908 535.23 276.528 534.288 277.043C532.77 277.878 531.765 278.412 531.765 278.412L531.762 278.414Z" fill="#FFB27D"/>
<path d="M544.924 270.734C544.924 270.734 544.767 275.911 549.608 278.426C555.206 276.404 558.199 268.052 560.509 262.315C560.829 261.525 561.131 260.732 561.427 259.961C562.497 257.093 563.353 254.267 563.866 251.827C564.186 250.372 557.962 243.03 557.17 244.765C555.951 247.526 554.667 251.1 553.47 254.653C552.805 256.602 552.165 258.551 551.522 260.347C551.157 261.439 550.794 262.465 550.453 263.407C549.788 265.206 549.191 266.661 548.657 267.582C548.313 268.182 547.331 269.015 546.027 269.958C545.68 270.209 545.31 270.468 544.921 270.734H544.924Z" fill="#8C9DF4"/>
<path d="M450.215 157.321H186.453L183.424 145.254H446.89L450.215 157.321Z" fill="#3D4CA5"/>
<path d="M199.819 151.394C200.162 152.476 199.477 153.359 198.291 153.367C197.103 153.374 195.862 152.505 195.521 151.423C195.177 150.34 195.862 149.457 197.048 149.45C198.234 149.443 199.477 150.312 199.819 151.394Z" fill="#EBF3FA"/>
<path d="M208.713 151.332C209.057 152.415 208.372 153.298 207.186 153.305C206 153.312 204.757 152.443 204.415 151.361C204.071 150.279 204.757 149.396 205.943 149.388C207.131 149.381 208.372 150.25 208.713 151.332Z" fill="#EBF3FA"/>
<path d="M217.608 151.271C217.952 152.353 217.266 153.236 216.08 153.243C214.892 153.25 213.652 152.381 213.31 151.299C212.966 150.217 213.652 149.334 214.837 149.327C216.026 149.32 217.266 150.188 217.608 151.271Z" fill="#EBF3FA"/>
<path d="M220.689 184.963C220.689 184.963 251.734 185.081 274.248 202.351C296.762 219.623 293.517 235.12 312.198 239.003C342.809 245.368 323.806 212.673 363.558 216.074L384.011 294.69H246.471L235.99 245.969L220.686 184.96L220.689 184.963Z" fill="#F99746"/>
<path d="M319.285 240.118C317.179 240.118 314.814 239.838 312.141 239.283C301.83 237.14 298.028 231.351 293.216 224.021C289.229 217.95 284.264 210.393 274.077 202.577C267.683 197.671 256.4 191.065 238.969 187.457C228.542 185.3 220.765 185.245 220.686 185.245V184.678C220.767 184.678 228.599 184.733 239.083 186.902C248.76 188.905 262.747 193.17 274.421 202.126C284.684 209.999 289.677 217.601 293.688 223.708C298.614 231.208 302.174 236.629 312.255 238.725C326.612 241.711 329.856 236.064 333.616 229.528C337.805 222.246 342.553 213.991 363.582 215.792L363.535 216.357C342.861 214.589 338.213 222.675 334.107 229.81C332.205 233.116 330.407 236.242 327.221 238.172C325.075 239.47 322.48 240.116 319.285 240.116V240.118Z" fill="white"/>
<path d="M227.94 213.689L235.833 245.162L246.474 294.692H384.014L377.078 268.975C377.078 268.975 356.718 257.62 329.107 267.518C301.496 277.415 270.93 268.28 268.964 246.019C266.746 220.916 243.698 208.826 227.94 213.691V213.689Z" fill="#ED7B2E"/>
<path d="M262.688 228.578C254.782 216.348 240.202 210.198 228.02 213.96L227.854 213.419C240.273 209.585 255.124 215.83 263.164 228.272L262.69 228.581L262.688 228.578Z" fill="white"/>
<path d="M314.367 237.019L309.898 236.557L309.437 241.029L313.905 241.491L314.367 237.019Z" fill="white"/>
<path d="M276.991 231.314L276.84 232.044L352.14 247.69L352.291 246.96L276.991 231.314Z" fill="white"/>
<path d="M275.647 231.559C275.721 230.85 276.354 230.335 277.063 230.408C277.773 230.482 278.287 231.115 278.214 231.825C278.14 232.535 277.507 233.05 276.798 232.976C276.089 232.903 275.574 232.269 275.647 231.559Z" fill="white"/>
<path d="M350.945 247.21C351.019 246.5 351.652 245.985 352.361 246.059C353.07 246.133 353.585 246.766 353.511 247.476C353.438 248.186 352.805 248.701 352.095 248.627C351.386 248.554 350.871 247.92 350.945 247.21Z" fill="white"/>
<path d="M262.206 192.956L258.937 189.873L255.855 193.144L259.124 196.227L262.206 192.956Z" fill="white"/>
<path d="M246.021 179.471L245.495 179.999L271.03 205.454L271.556 204.926L246.021 179.471Z" fill="white"/>
<path d="M244.756 178.915C245.204 178.362 246.018 178.276 246.571 178.725C247.123 179.174 247.209 179.988 246.76 180.541C246.312 181.094 245.498 181.179 244.946 180.731C244.393 180.282 244.308 179.468 244.756 178.915Z" fill="white"/>
<path d="M270.292 204.371C270.74 203.818 271.553 203.732 272.106 204.181C272.659 204.629 272.744 205.444 272.296 205.997C271.848 206.55 271.034 206.635 270.481 206.186C269.929 205.738 269.843 204.924 270.292 204.371Z" fill="white"/>
<path d="M343.914 215.16L342.159 219.298L346.294 221.055L348.05 216.917L343.914 215.16Z" fill="white"/>
<path d="M349.66 207.485L340.09 228.401L340.767 228.711L350.337 207.795L349.66 207.485Z" fill="white"/>
<path d="M340.006 229.76C339.332 229.53 338.969 228.799 339.199 228.122C339.427 227.448 340.16 227.085 340.836 227.315C341.509 227.543 341.872 228.277 341.642 228.953C341.412 229.627 340.682 229.99 340.006 229.76Z" fill="white"/>
<path d="M349.567 208.84C348.893 208.61 348.53 207.879 348.76 207.202C348.988 206.528 349.721 206.165 350.397 206.395C351.071 206.623 351.434 207.357 351.203 208.033C350.973 208.707 350.243 209.07 349.567 208.84Z" fill="white"/>
<path d="M368.236 171.332L375.226 200.243C375.525 201.48 374.358 202.484 372.619 202.484H300.714C298.975 202.484 297.324 201.48 297.025 200.243L290.035 171.332C289.737 170.095 290.904 169.091 292.642 169.091H364.548C366.286 169.091 367.937 170.095 368.236 171.332Z" fill="#D2E0FF"/>
<path d="M308.261 188.243H300.609L298.757 180.583H306.409L308.261 188.243Z" fill="#2B478B"/>
<path d="M313.014 192.071H305.36L303.51 184.414H311.162L313.014 192.071Z" fill="#2B478B"/>
<path d="M326.128 188.243H318.474L316.624 180.583H324.276L326.128 188.243Z" fill="#2B478B"/>
<path d="M330.879 192.071H323.227L321.375 184.414H329.029L330.879 192.071Z" fill="#739AF0"/>
<path d="M331.285 192.399H322.978L320.969 184.087H329.276L331.285 192.399ZM323.474 191.746H330.474L328.78 184.742H321.781L323.474 191.746Z" fill="#1F3B72"/>
<path d="M343.993 188.243H336.341L334.489 180.583H342.143L343.993 188.243Z" fill="#739AF0"/>
<path d="M344.399 188.57H336.092L334.083 180.258H342.39L344.399 188.57ZM336.588 187.915H343.588L341.894 180.911H334.895L336.588 187.915Z" fill="#2B478B"/>
<path d="M348.747 192.071H341.093L339.243 184.414H346.894L348.747 192.071Z" fill="#739AF0"/>
<path d="M349.152 192.399H340.846L338.837 184.087H347.143L349.152 192.399ZM341.341 191.746H348.341L346.647 184.742H339.648L341.341 191.746Z" fill="#2B478B"/>
<path d="M344.399 188.554H339.892L338.81 184.084H343.317L344.399 188.554Z" fill="#2B478B"/>
<path d="M361.86 188.243H354.206L352.356 180.583H360.008L361.86 188.243Z" fill="#2B478B"/>
<path d="M366.614 192.071H358.96L357.107 184.414H364.761L366.614 192.071Z" fill="#2B478B"/>
<path d="M361.645 188.058H358.139L357.297 184.581H360.803L361.645 188.058Z" fill="#739AF0"/>
<path d="M169.297 262.626H142.799C139.265 262.626 135.766 259.759 134.984 256.222L115.046 166.143C114.263 162.606 116.492 159.739 120.026 159.739H146.525C150.059 159.739 153.558 162.606 154.34 166.143L174.278 256.222C175.061 259.759 172.831 262.626 169.297 262.626Z" fill="#3D4CA5"/>
<path d="M157.424 179.997H118.129V180.168H157.424V179.997Z" fill="#AEC3FF"/>
<path d="M162.122 201.221H122.828V201.392H162.122V201.221Z" fill="#AEC3FF"/>
<path d="M166.821 222.447H127.526V222.618H166.821V222.447Z" fill="#AEC3FF"/>
<path d="M142.168 173.738C142.218 173.282 140.188 165.474 140.188 165.474L147.391 171.312L143.852 171.187L142.168 173.741V173.738Z" fill="white"/>
<path d="M163.875 253.398H149.919L146.831 239.451H160.787L163.873 253.398H163.875ZM150.543 252.619H162.91L160.168 240.225H147.801L150.543 252.619Z" fill="#D2E0FF"/>
<path d="M153.85 245.465H140.688L137.773 232.295H150.935L153.85 245.465Z" fill="#F77D48"/>
<path d="M160.033 239.483L149.788 252.653L150.675 253.344L160.921 240.174L160.033 239.483Z" fill="#F77D48"/>
<path d="M124.45 173.738C124.5 173.282 122.47 165.474 122.47 165.474L129.673 171.312L126.134 171.187L124.45 173.741V173.738Z" fill="#D2E0FF"/>
<path d="M127.24 189.211H126.179L125.76 187.315H132.958L133.361 189.135H132.301L132.133 188.376H127.055L127.24 189.211Z" fill="#D2E0FF"/>
<path d="M131.333 193.837H130.271L128.945 187.846H130.008L131.333 193.837Z" fill="#D2E0FF"/>
<path d="M132.287 194.215H129.483L129.249 193.154H132.052L132.287 194.215Z" fill="#D2E0FF"/>
<path d="M146.644 194.877L145.686 194.186L150.742 186.225L151.701 186.916L146.644 194.877Z" fill="#D2E0FF"/>
<path d="M134.493 213.433C132.467 213.433 130.456 211.785 130.008 209.758C129.559 207.731 130.842 206.084 132.866 206.084C134.889 206.084 136.903 207.731 137.351 209.758C137.799 211.785 136.516 213.433 134.493 213.433ZM133.079 207.053C131.59 207.053 130.646 208.265 130.975 209.756C131.305 211.247 132.785 212.459 134.275 212.459C135.764 212.459 136.708 211.247 136.378 209.756C136.049 208.265 134.569 207.053 133.079 207.053Z" fill="#D2E0FF"/>
<path d="M141.478 216.62C141.352 216.62 141.212 216.57 141.096 216.473L136.215 212.36C135.987 212.167 135.923 211.859 136.075 211.674C136.227 211.489 136.535 211.493 136.763 211.686L141.644 215.799C141.872 215.991 141.936 216.3 141.784 216.485C141.711 216.575 141.599 216.62 141.478 216.62Z" fill="#D2E0FF"/>
<path d="M152.056 205.745L153.873 209.073H157.372L154.997 211.13L156.814 214.46L153.529 212.403L151.155 214.46L151.499 211.13L148.214 209.073H151.712L152.056 205.745Z" fill="#D2E0FF"/>
<path d="M489.873 176.606C489.873 176.606 489.968 181.851 489.183 181.754C488.395 181.656 487.328 177.356 487.321 177.42C487.311 177.484 487.676 181.941 486.687 182.164C485.698 182.387 484.695 177.446 484.695 177.446C484.695 177.446 485.359 181.687 484.662 181.799C483.967 181.913 482.871 177.799 482.584 177.788C482.297 177.776 483.507 181.315 482.66 181.495C481.813 181.675 479.92 176.698 480.563 176.064C481.204 175.431 482.202 176.109 482.202 176.109C482.202 176.109 483.433 175.196 484.38 175.713C484.38 175.713 486.597 175.269 487.264 176.254C487.264 176.254 488.647 175.063 489.873 176.608V176.606Z" fill="#ED917E"/>
<path d="M504.18 156.514L522.161 221.396C522.929 224.173 521.174 226.423 518.24 226.423H396.864C393.93 226.423 390.928 224.173 390.159 221.396L372.178 156.514C371.409 153.737 373.165 151.487 376.099 151.487H497.474C500.408 151.487 503.411 153.737 504.18 156.514Z" fill="#D2E0FF"/>
<path d="M409.786 185.786H394.111L389.763 170.1H405.439L409.786 185.786Z" fill="#B3C2FF"/>
<path d="M404.881 181.943H396.885L394.668 173.942H402.663L404.881 181.943Z" fill="#505ABA"/>
<path d="M404.945 169.748L393.618 185.435L394.616 186.157L405.943 170.47L404.945 169.748Z" fill="#F77D48"/>
<path d="M398.629 177.282H382.953L378.606 161.598H394.281L398.629 177.282Z" fill="#F77D48"/>
<path d="M407.533 204.295H394.931L391.437 191.684H404.039L407.533 204.295Z" fill="#F77D48"/>
<path d="M420.019 204.295H407.417L403.923 191.684H416.525L420.019 204.295Z" fill="#ED7D2B"/>
<path d="M432.62 204.295H420.018L416.525 191.684H429.126L432.62 204.295Z" fill="#FF8939"/>
<path d="M445.225 204.295H432.62L429.127 191.684H441.728L445.225 204.295Z" fill="#739AF0"/>
<path d="M457.826 204.295H445.224L441.728 191.684H454.33L457.826 204.295Z" fill="#8C9DF4"/>
<path d="M470.428 204.295H457.826L454.33 191.684H466.932L470.428 204.295Z" fill="#6B80DD"/>
<path d="M483.03 204.295H470.428L466.932 191.684H479.534L483.03 204.295Z" fill="#505ABA"/>
<path d="M495.631 204.295H483.03L479.533 191.684H492.135L495.631 204.295Z" fill="#2B478B"/>
<path d="M411.029 216.905H398.428L394.931 204.295H407.533L411.029 216.905Z" fill="#A4B5FF"/>
<path d="M423.515 216.905H410.913L407.417 204.295H420.019L423.515 216.905Z" fill="#8C9DF4"/>
<path d="M436.117 216.905H423.515L420.019 204.295H432.62L436.117 216.905Z" fill="#505ABA"/>
<path d="M448.718 216.905H436.116L432.62 204.295H445.224L448.718 216.905Z" fill="#2B478B"/>
<path d="M496.251 167.007H430.239C429.333 167.007 428.384 166.264 428.133 165.357C427.882 164.451 428.418 163.708 429.326 163.708H495.338C496.244 163.708 497.192 164.451 497.444 165.357C497.695 166.264 497.159 167.007 496.251 167.007Z" fill="#FF8939"/>
<path d="M498.561 175.343H432.549C431.641 175.343 430.695 174.6 430.443 173.693C430.192 172.786 430.728 172.043 431.636 172.043H497.648C498.554 172.043 499.503 172.786 499.754 173.693C500.005 174.6 499.469 175.343 498.561 175.343Z" fill="#739AF0"/>
<path d="M500.871 183.676H434.859C433.953 183.676 433.005 182.933 432.753 182.027C432.502 181.12 433.038 180.377 433.944 180.377H499.955C500.862 180.377 501.81 181.12 502.062 182.027C502.313 182.933 501.777 183.676 500.869 183.676H500.871Z" fill="#505ABA"/>
<path d="M419.015 162.929H421.003C422.046 162.929 422.815 163.489 423.052 164.351C423.256 165.084 422.938 165.523 422.362 165.701L424.034 167.391H423.111L421.572 165.837H420.604L421.036 167.391H420.253L419.018 162.929H419.015ZM421.558 165.141C422.118 165.141 422.395 164.847 422.265 164.382C422.132 163.905 421.717 163.641 421.136 163.641H419.995L420.41 165.139H421.555L421.558 165.141Z" fill="#505ABA"/>
<path d="M421.306 173.584C420.96 172.335 421.622 171.277 422.967 171.277C423.745 171.277 424.281 171.493 424.848 171.882L424.516 172.475C424.091 172.181 423.702 171.998 423.135 171.998C422.314 171.998 421.89 172.718 422.129 173.586C422.383 174.505 423.175 175.179 424.086 175.179C424.506 175.179 424.852 175.046 425.068 174.842L424.836 174.006H423.695L423.505 173.325H425.403L425.922 175.2C425.588 175.575 425.045 175.896 424.255 175.896C422.86 175.896 421.667 174.901 421.302 173.589L421.306 173.584Z" fill="#505ABA"/>
<path d="M423.799 180.192H425.799C426.309 180.192 426.747 180.332 427.075 180.588C427.326 180.785 427.497 181.027 427.582 181.34C427.729 181.877 427.504 182.162 427.222 182.335C427.793 182.513 428.239 182.812 428.41 183.431C428.631 184.229 428.092 184.656 427.099 184.656H425.035L423.799 180.194V180.192ZM426.159 182.071C426.662 182.071 426.944 181.874 426.828 181.452C426.731 181.101 426.392 180.885 425.886 180.885H424.76L425.087 182.071H426.157H426.159ZM426.914 183.958C427.45 183.958 427.715 183.747 427.601 183.334C427.497 182.959 427.136 182.736 426.517 182.736H425.275L425.614 183.961H426.914V183.958Z" fill="#505ABA"/>
<path d="M252.614 164.394C252.266 164.795 252.221 165.243 252.394 165.72C252.394 165.72 252.394 165.725 252.396 165.728C252.716 166.613 253.774 167.6 255 168.588C255.157 168.713 255.297 168.83 255.418 168.937C255.449 168.965 255.482 168.993 255.513 169.02C255.536 169.041 255.56 169.065 255.584 169.084C256.729 170.14 256.298 170.382 258.354 172.525C260.7 174.968 262.315 175.01 262.775 174.79C263.164 174.6 262.375 173.304 261.499 171.849C261.457 171.778 261.416 171.709 261.371 171.638C261.255 171.443 261.139 171.248 261.023 171.054C259.998 169.302 260.261 168.478 260.503 165.872C260.7 163.753 263.798 154.033 263.798 154.033L259.303 153.26C259.303 153.26 257.949 161 256.457 162.191C255.66 162.827 254.766 162.834 253.999 163.304C253.945 163.337 253.893 163.371 253.84 163.404C253.404 163.693 252.961 163.99 252.61 164.394H252.614Z" fill="#FFB27D"/>
<path d="M252.614 164.394C252.266 164.795 252.221 165.244 252.394 165.721C252.394 165.721 252.394 165.725 252.396 165.728C252.787 166.611 253.819 167.596 255.005 168.578C255.159 168.706 255.297 168.825 255.418 168.937C255.449 168.965 255.482 168.994 255.513 169.02C255.536 169.041 255.56 169.065 255.584 169.084C256.729 170.14 256.298 170.382 258.354 172.525C260.7 174.968 262.315 175.01 262.775 174.79C263.164 174.6 262.375 173.304 261.499 171.849C261.042 171.68 258.921 170.819 257.318 168.766C255.956 167.028 255.034 164.812 254.106 163.454C254.004 163.435 253.942 163.423 253.843 163.404C253.406 163.694 252.963 163.99 252.612 164.394H252.614Z" fill="#233862"/>
<path d="M288.859 161.583C289.136 162.972 291.114 162.739 293.325 162.201C295.536 161.659 295.009 162.303 298.154 161.954C301.299 161.605 302.253 160.432 302.348 159.965C302.433 159.549 300.879 159.402 299.212 159.21C299.003 159.186 298.792 159.16 298.581 159.134C296.7 158.897 295.322 157.681 293.612 156.685C291.992 155.74 289.577 151.888 289.577 151.888L285.265 152.229C285.265 152.229 287.528 155.669 288.403 157.164C288.918 158.045 288.892 159.208 288.828 160.105C288.795 160.594 288.764 161.092 288.861 161.581L288.859 161.583Z" fill="#FFB27D"/>
<path d="M293.325 162.201C295.535 161.659 295.009 162.303 298.154 161.954C301.299 161.605 302.253 160.432 302.347 159.965C302.433 159.549 300.879 159.402 299.212 159.21L299.195 159.243C299.195 159.243 297.31 160.582 294.691 160.644C292.556 160.696 290.298 160.083 288.823 160.107C288.79 160.596 288.759 161.095 288.856 161.583C289.134 162.972 291.112 162.739 293.322 162.201H293.325Z" fill="#233862"/>
<path d="M272.332 133.987L268.3 144.843L263.036 159.018C263.036 159.018 261.608 159.155 260.24 158.761C258.98 158.396 257.536 157.444 257.536 157.444C257.536 157.444 258.997 142.223 261.725 133.486C262.424 131.243 263.207 129.43 264.071 128.409C268.297 123.41 272.334 133.984 272.334 133.984L272.332 133.987Z" fill="#E58638"/>
<path d="M268.23 116.746C265.934 116.005 259.948 116.734 253.451 117.911C251.656 118.236 249.848 117.415 248.902 115.856L232.555 114.579C232.555 114.579 227.161 126.548 230.114 134.174C230.548 135.295 231.502 135.995 232.97 136.019C232.97 136.019 242.847 136.033 246.006 136.033C254.134 136.033 263.209 130.441 264.383 130.206C266.304 129.821 267.073 133.666 268.994 137.704C270.915 141.741 287.056 155.586 287.056 155.586C287.056 155.586 289.537 155.609 290.562 155.225C291.664 154.812 292.068 154.273 292.068 154.273C292.068 154.273 274.184 118.666 268.226 116.743L268.23 116.746Z" fill="#F99746"/>
<path d="M247.168 67.8205C245.954 67.0966 244.77 66.9874 244.047 67.0064C243.542 67.0206 243.039 66.9874 242.538 66.9138C236.3 65.9977 232.543 75.0668 232.323 77.8059C231.92 82.8353 229.258 83.6043 225.516 86.754C218.011 93.0699 220.212 100.411 224.315 103.138C226.777 104.774 231.118 103.138 231.118 103.138C231.18 103.181 242.987 96.5328 248.807 93.3262C257.533 92.0849 250.672 69.9068 247.166 67.8181L247.168 67.8205Z" fill="#152949"/>
<path d="M243.928 90.5991C243.955 90.6157 241.066 91.6031 239.133 90.7462C237.316 89.9416 235.938 86.9486 235.964 86.9486C236.792 86.9106 237.698 86.1867 238.397 81.4397L238.748 81.5655L244.669 83.6969C244.669 83.6969 244.239 85.5981 243.962 87.4067C243.729 88.9257 243.604 90.3807 243.926 90.5967L243.928 90.5991Z" fill="#FFB27D"/>
<path d="M244.671 83.6968C244.671 83.6968 244.434 84.7222 244.09 86.6376C240.688 86.0252 239.23 83.4049 238.751 81.5654L244.671 83.6968Z" fill="#ED975D"/>
<path d="M245.553 85.5838C245.553 85.5838 237.453 84.4967 238.207 79.4578C238.961 74.4212 238.425 70.887 243.629 71.3689C248.833 71.8507 249.547 73.9228 249.704 75.6649C249.86 77.4071 247.68 85.7357 245.553 85.5814V85.5838Z" fill="#FFB27D"/>
<path d="M249.407 72.9069C249.407 72.9069 244.222 77.3786 240.695 77.7394C237.168 78.1001 235.833 76.968 235.833 76.968C235.833 76.968 237.911 75.2401 239.163 72.4536C239.531 71.6323 240.311 71.0674 241.208 70.9915C243.727 70.7731 248.501 70.6758 249.407 72.9093V72.9069Z" fill="#152949"/>
<path d="M246.168 72.5058C246.168 72.5058 247.901 74.1839 248.449 75.43C248.976 76.631 249.135 79.5053 248.715 80.6446C248.715 80.6446 251.417 75.3849 249.887 72.831C248.264 70.1228 246.168 72.5058 246.168 72.5058Z" fill="#152949"/>
<path d="M250.75 102.538C250.505 118.946 250.683 115.516 248.89 117.073C248.458 117.448 247.244 117.671 245.643 117.778C240.615 118.113 231.777 117.282 231.443 116.354C230.283 113.138 231.101 112.139 230.133 107.211C230.034 106.687 229.908 106.12 229.761 105.502C228.954 102.12 228.169 100.969 231.03 95.5337C233.625 90.611 236.322 86.6164 236.563 86.7588C243.411 90.827 243.964 87.4068 243.964 87.4068C243.964 87.4068 250.868 94.5321 250.75 102.536V102.538Z" fill="#8C9DF4"/>
<path d="M268.3 144.843L263.036 159.018C263.036 159.018 261.608 159.155 260.24 158.761C258.98 158.396 257.536 157.444 257.536 157.444C257.536 157.444 258.997 142.223 261.725 133.486L268.302 144.841L268.3 144.843Z" fill="#F99746"/>
<path d="M243.966 87.4089C243.966 87.4089 251.013 88.6052 251.838 91.6409C252.666 94.6766 255.389 113.102 255.389 113.102C255.389 113.102 253.402 115.044 251.748 113.387C250.093 111.73 246.542 96.1482 246.542 96.1482L243.966 87.4089Z" fill="#8C9DF4"/>
<path d="M245.643 117.778C240.615 118.113 231.777 117.282 231.443 116.354C230.283 113.138 231.101 112.139 230.133 107.211L232.557 100.378C232.557 100.378 232.157 107.987 234.398 109.988C236.637 111.989 243.579 113.852 244.668 115.523C245.195 116.326 245.539 117.13 245.641 117.776L245.643 117.778Z" fill="#707FE5"/>
<path d="M239.882 114.576C239.882 114.576 244.842 113.47 245.643 113.912C246.443 114.353 248.399 115.955 248.644 116.515C248.888 117.073 246.863 116.091 246.203 115.915C245.776 115.801 244.652 116.19 244.097 116.378C241.756 117.159 240.321 116.758 240.321 116.758L239.882 114.579V114.576Z" fill="#FFB27D"/>
<path d="M236.561 86.7563C236.561 86.7563 229.901 87.167 227.595 90.3854C224.351 94.9141 217.911 114.22 221.602 116.793C225.757 119.694 240.513 117.553 240.513 117.553C240.513 117.553 241.004 115.255 240.321 114.144C239.637 113.033 228.535 111.239 228.022 110.726C227.51 110.214 234.429 100.727 234.429 99.1888C234.429 97.6507 236.561 86.7587 236.561 86.7587V86.7563Z" fill="#8C9DF4"/>
<path d="M245.883 115.293C245.883 115.293 246.922 116.634 247.263 116.795C247.605 116.954 247.823 116.916 247.823 116.916L247.124 115.656L245.883 115.295V115.293Z" fill="#FFB27D"/>
<path d="M245.643 113.912L248.665 115.381C248.665 115.381 248.537 115.592 248.165 115.573C247.792 115.556 246.855 115.212 246.855 115.212L245.646 113.912H245.643Z" fill="#FFB27D"/>
<path d="M271.444 117.365H239.882V118.061H271.165L271.444 117.365Z" fill="#152949"/>
<path d="M247.263 118.061H271.165L278.354 100.169H254.49L247.263 118.061Z" fill="#152949"/>
<path d="M265.131 109.115C265.311 108.486 264.948 107.976 264.319 107.976C263.691 107.976 263.036 108.486 262.856 109.115C262.676 109.744 263.039 110.254 263.667 110.254C264.296 110.254 264.95 109.744 265.131 109.115Z" fill="#EBF3FA"/>
<path d="M265.205 229.425L262.754 227.29L260.621 229.743L263.072 231.878L265.205 229.425Z" fill="white"/>
<path d="M231.417 270.651C230.928 269.025 230.684 268.878 230.684 268.878C230.684 268.878 215.488 270.774 212.909 270.606C211.379 270.506 193.128 264.416 193.128 264.416L182.047 275.049C182.047 275.049 209.529 279.58 213.403 279.283C219.804 278.792 229.574 273.138 229.574 273.138C229.574 273.138 231.801 271.923 231.417 270.646V270.651Z" fill="#E58638"/>
<path d="M189.881 392.044C189.881 392.044 190.094 397.197 191.081 398.45L204.838 398.531C204.741 397.999 204.684 396.77 202.781 396.437C200.379 396.02 197.554 394.342 196.1 391.161C194.568 387.817 189.878 392.044 189.878 392.044H189.881Z" fill="#214C7F"/>
<path d="M162.884 391.301C162.884 391.301 161.926 398.146 163.228 398.267C163.401 398.284 168.771 398.369 171.098 398.407C173.832 398.452 178.327 398.357 178.327 398.357C178.892 398.381 179.262 397.769 178.975 397.28C178.659 396.746 178.057 396.174 176.909 395.953C174.513 395.493 170.521 393.731 169.122 390.527C167.649 387.157 162.889 391.301 162.889 391.301H162.884Z" fill="#214C7F"/>
<path d="M197.032 321.145C197.032 321.145 193.206 334.539 182.243 357.799C171.28 381.057 170.806 392.267 170.806 392.267C170.806 392.267 169.146 392.853 166.945 392.621C164.563 392.367 162.882 391.303 162.882 391.303C162.882 391.303 163.591 363.619 168.771 351.882C173.949 340.145 175.004 308.024 175.004 308.024L197.032 321.147V321.145Z" fill="#707FE5"/>
<path d="M203.175 309.622C203.175 309.622 203.479 330.361 199.895 355.827C196.308 381.292 197.985 393.133 197.985 393.133C197.985 393.133 197.034 393.826 194.112 393.815C190.689 393.8 188.937 392.386 188.937 392.386C188.937 392.386 183.804 366.911 185.274 354.165C186.745 341.419 178.247 310.429 178.247 310.429L203.175 309.619V309.622Z" fill="#8C9DF4"/>
<path d="M194.845 257.922C194.809 259.55 194.591 261.321 193.941 262.189L190.291 264.107L186.245 261.105C186.245 261.105 187.727 257.815 187.364 253.004C187.328 252.714 187.184 250.87 187.184 250.834L189.207 251.846L194.7 254.594C194.7 254.594 194.7 254.703 194.736 254.848C194.771 255.392 194.845 256.583 194.845 257.922Z" fill="#FFB27D"/>
<path d="M174.625 312.183C175.948 318.244 204.297 315.584 203.927 311.883C203.913 311.76 203.839 310.046 203.737 307.739C203.521 302.745 203.194 294.944 203.154 294.334C203.154 294.324 203.151 294.312 203.151 294.303C202.641 289.15 202.15 284.111 202.119 280.819C202.091 277.964 201.697 275.047 201.175 272.395C200.694 269.951 200.101 267.729 199.586 265.999C199.223 264.779 198.547 263.708 197.653 262.866C197.015 262.268 196.268 261.783 195.445 261.456C195.22 261.361 194.992 261.283 194.757 261.216C191.422 260.248 188.057 259.014 186.807 259.381C183.42 260.378 179.648 266.383 177.867 273.993C174.532 288.234 173.761 308.235 174.627 312.185L174.625 312.183Z" fill="#F99746"/>
<path d="M194.845 257.922C192.786 257.091 188.847 255.209 187.763 253.075C187.293 252.135 188.016 251.846 189.207 251.846L194.7 254.594C194.7 254.594 194.7 254.703 194.736 254.848C194.772 255.392 194.845 256.583 194.845 257.922Z" fill="#FCA56B"/>
<path d="M197.345 254.257C197.345 254.257 187.48 257.336 185.659 251.16C183.837 244.984 181.337 241.219 187.559 238.993C193.78 236.767 195.704 238.761 196.814 240.674C197.924 242.587 199.864 253.298 197.345 254.257Z" fill="#FFB27D"/>
<path d="M196.427 240.078C196.427 240.078 195.798 247.265 194.311 246.954C192.826 246.643 191.479 246.41 191.695 248.577C191.913 250.744 191.982 253.348 187.404 253.732C182.826 254.117 178.234 242.2 179.492 239.961C183.121 233.508 201.669 232.205 196.424 240.078H196.427Z" fill="#163560"/>
<path d="M203.737 307.737C203.521 302.743 203.194 294.941 203.154 294.331C203.154 294.322 203.151 294.31 203.151 294.301L186.406 284.282C186.406 284.282 185.758 307.673 203.739 307.739L203.737 307.737Z" fill="#E58638"/>
<path d="M261.509 228.324L264.526 230.952C264.526 230.952 259.353 236.494 259.834 242.326L252.111 248.85L245.717 243.28L251.063 234.405C251.063 234.405 256.796 234.196 261.506 228.324H261.509Z" fill="#163560"/>
<path d="M253.66 237.804C254.284 237.087 255.368 237.011 256.084 237.635C256.8 238.26 256.876 239.344 256.253 240.061C255.629 240.778 254.545 240.854 253.828 240.23C253.112 239.605 253.036 238.521 253.66 237.804Z" fill="white"/>
<path d="M263.261 229.864L262.768 229.434L253.646 239.919L254.14 240.35L263.261 229.864Z" fill="white"/>
<path d="M252.095 248.852L245.699 243.281L244.3 244.889L250.697 250.46L252.095 248.852Z" fill="#6C7AFF"/>
<path d="M180.744 324.784L180.433 324.513C178.752 323.049 178.576 320.5 180.037 318.817L244.32 244.887L250.717 250.457L186.434 324.387C184.971 326.07 182.423 326.246 180.742 324.784H180.744Z" fill="#163560"/>
<path d="M216.915 286.558C216.915 286.558 218.151 285.459 218.44 284.702C218.54 284.439 219.382 283.247 220.819 283.352C222.131 283.449 224.465 280.651 224.465 280.651C224.804 281.391 225.976 284.166 224.299 285.571C222.933 286.717 219.64 288.704 217.643 290.009C215.499 291.412 216.913 286.556 216.913 286.556L216.915 286.558Z" fill="#FFB27D"/>
<path d="M217.079 286.148C217.079 286.148 200.469 288.974 198.996 288.255C196.647 287.111 199.906 270.245 199.906 270.245C199.906 270.245 200.046 266.424 195.585 265.522C191.707 264.738 187.966 267.644 187.966 267.644C187.966 267.644 184.565 270.689 184.999 274.069C185.962 281.557 187.461 296.79 192.466 299.126C198.922 302.138 217.605 290.776 217.605 290.776C217.605 290.776 218.227 290.014 218.139 288.597C218.061 287.349 217.076 286.148 217.076 286.148H217.079Z" fill="#F99746"/>
<path d="M232.109 271.861C232.109 271.861 236.303 270.333 235.933 268.187C235.563 266.042 234.256 266.312 233.468 267.053C232.679 267.793 233.117 271.591 232.109 271.861Z" fill="#FFB27D"/>
<path d="M218.151 285.459C218.151 285.459 218.722 283.779 219.332 283.057C219.942 282.336 220.2 281.116 220.478 281.522C220.755 281.928 220.257 283.39 220.478 283.945C220.701 284.5 218.151 285.459 218.151 285.459Z" fill="#FFB27D"/>
<path d="M589.608 372.225H514.5V398.329H589.608V372.225Z" fill="#AEC3FF"/>
<path d="M638.233 398.158H0.754256C0.337692 398.158 0 398.496 0 398.913V399.245C0 399.662 0.337692 400 0.754256 400H638.233C638.65 400 638.987 399.662 638.987 399.245V398.913C638.987 398.496 638.65 398.158 638.233 398.158Z" fill="#163560"/>
</g>
<defs>
<clipPath id="clip0_76_102425">
<rect width="638.987" height="400" fill="white"/>
</clipPath>
</defs>
</svg>
